<?xml version="1.0" encoding="UTF-8" standalone="no"?>
<!--
  - Copyright (c) 25-26 Marco Maccaferri and others.
  - All rights reserved.
  -
  - This program and the accompanying materials are made available under
  - the terms of the Eclipse Public License v1.0 which accompanies this
  - distribution, and is available at
  - http://www.eclipse.org/legal/epl-v10.html
  -->

<svg
        width="203"
        height="30"
        viewBox="0 0 203 30"
        version="1.1"
        id="svg142"
        sodipodi:docname="support_me_on_kofi.svg"
        inkscape:version="1.2.2 (b0a8486541, 2022-12-01)"
        xmlns:inkscape="http://www.inkscape.org/namespaces/inkscape"
        xmlns:sodipodi="http://sodipodi.sourceforge.net/DTD/sodipodi-0.dtd"
        xmlns="http://www.w3.org/2000/svg"
        xmlns:rdf="http://www.w3.org/1999/02/22-rdf-syntax-ns#"
        xmlns:cc="http://creativecommons.org/ns#"
        xmlns:dc="http://purl.org/dc/elements/1.1/">
    <defs
            id="defs146"/>
    <sodipodi:namedview
            id="namedview144"
            pagecolor="#ffffff"
            bordercolor="#666666"
            borderopacity="1.0"
            inkscape:showpageshadow="2"
            inkscape:pageopacity="0.0"
            inkscape:pagecheckerboard="0"
            inkscape:deskcolor="#d1d1d1"
            showgrid="false"
            inkscape:zoom="5.9282511"
            inkscape:cx="101.54766"
            inkscape:cy="14.928517"
            inkscape:window-width="1920"
            inkscape:window-height="1131"
            inkscape:window-x="0"
            inkscape:window-y="32"
            inkscape:window-maximized="1"
            inkscape:current-layer="svg142"/>
    <!-- Generator: Sketch 53.2 (72643) - https://sketchapp.com -->
    <title
            id="title132">Artboard
    </title>
    <desc
            id="desc134">Created with Sketch.
    </desc>
    <g
            id="g323"
            inkscape:export-filename="g323.png"
            inkscape:export-xdpi="76.800003"
            inkscape:export-ydpi="76.800003"
            transform="translate(-10)">
        <rect
                id="Rectangle"
                fill="#ff5e5b"
                x="10"
                y="0"
                width="203"
                height="30"
                rx="7.2825122"
                style="fill-rule:evenodd;stroke:none;stroke-width:0.954103"/>
        <g
                id="Group"
                transform="translate(24,7)"
                fill-rule="nonzero"
                style="fill:none;stroke:none;stroke-width:1">
            <path
                    d="m 17.417931,0 h 1.607617 C 22.126324,0 24.64,2.513676 24.64,5.6144524 v 0.3300141 c 0,3.1007765 -2.513676,5.6144525 -5.614452,5.6144525 h -1.607617 v 1.689795 c 0,1.431128 -1.160158,2.591286 -2.591286,2.591286 H 2.5912857 C 1.1601581,15.84 0,14.679842 0,13.248714 V 1.2956429 C 0,0.58007907 0.58007907,0 1.2956429,0 Z m 0,2.9967568 v 5.5654054 h 1.465573 c 1.536844,0 2.782703,-1.2458585 2.782703,-2.7827027 0,-1.5368443 -1.245859,-2.7827027 -2.782703,-2.7827027 z"
                    id="Rectangle-2"
                    fill="#ffffff"/>
            <path
                    d="M 8.36,5.2768458 C 8.7602942,4.1056152 9.7089414,3.52 11.205941,3.52 c 2.2455,0 3.077965,2.7936503 1.900934,4.62 C 12.322188,9.3575665 10.739896,10.897567 8.36,12.76 5.9801039,10.897567 4.3978123,9.3575665 3.613125,8.14 2.4360941,6.3136503 3.2685587,3.52 5.5140587,3.52 7.0110586,3.52 7.9597058,4.1056152 8.36,5.2768458 Z"
                    id="Path-2"
                    fill="#ff5e5b"/>
        </g>
        <path
                d="m 66.2,19.14 c -0.672003,0 -1.269331,-0.084 -1.792,-0.252 -0.522669,-0.168001 -1.012664,-0.452665 -1.47,-0.854 -0.252001,-0.224001 -0.378,-0.471332 -0.378,-0.742 0,-0.214668 0.07933,-0.403666 0.238,-0.567 0.158668,-0.163334 0.349999,-0.245 0.574,-0.245 0.177334,0 0.335999,0.056 0.476,0.168 0.373335,0.308001 0.737332,0.531999 1.092,0.672 0.354668,0.140001 0.774664,0.21 1.26,0.21 0.522669,0 0.972998,-0.116665 1.351,-0.35 0.378002,-0.233334 0.567,-0.522665 0.567,-0.868 0,-0.420002 -0.186665,-0.748999 -0.56,-0.987 -0.373335,-0.238001 -0.965996,-0.417666 -1.778,-0.539 -2.04401,-0.298668 -3.066,-1.250659 -3.066,-2.856 0,-0.588003 0.153998,-1.098998 0.462,-1.533 0.308001,-0.4340022 0.727997,-0.7653322 1.26,-0.994 0.532003,-0.2286678 1.124663,-0.343 1.778,-0.343 0.588003,0 1.140997,0.088666 1.659,0.266 0.518003,0.1773342 0.949665,0.4106652 1.295,0.7 0.270668,0.214668 0.406,0.461999 0.406,0.742 0,0.214668 -0.07933,0.403666 -0.238,0.567 -0.158667,0.163334 -0.345332,0.245 -0.56,0.245 -0.140001,0 -0.265999,-0.042 -0.378,-0.126 -0.242668,-0.196001 -0.580998,-0.375666 -1.015,-0.539 -0.434002,-0.163334 -0.823665,-0.245 -1.169,-0.245 -0.588003,0 -1.042998,0.109666 -1.365,0.329 -0.322002,0.219334 -0.483,0.506332 -0.483,0.861 0,0.401335 0.165665,0.704666 0.497,0.91 0.331335,0.205334 0.851663,0.373333 1.561,0.504 0.802671,0.140001 1.444331,0.319666 1.925,0.539 0.480669,0.219334 0.842332,0.517998 1.085,0.896 0.242668,0.378002 0.364,0.879663 0.364,1.505 0,0.588003 -0.165665,1.103664 -0.497,1.547 -0.331335,0.443335 -0.772331,0.783999 -1.323,1.022 -0.550669,0.238001 -1.14333,0.357 -1.778,0.357 z m 10.626,-7.63 c 0.242668,0 0.443333,0.08167 0.602,0.245 0.158668,0.163334 0.238,0.366332 0.238,0.609 v 3.556 c 0,1.008005 -0.277664,1.796664 -0.833,2.366 -0.555336,0.569336 -1.346328,0.854 -2.373,0.854 -1.026672,0 -1.815331,-0.284664 -2.366,-0.854 -0.550669,-0.569336 -0.826,-1.357995 -0.826,-2.366 v -3.556 c 0,-0.242668 0.07933,-0.445666 0.238,-0.609 0.158667,-0.163334 0.359332,-0.245 0.602,-0.245 0.242668,0 0.443332,0.08167 0.602,0.245 0.158667,0.163334 0.238,0.366332 0.238,0.609 v 3.556 c 0,0.569336 0.125999,0.991665 0.378,1.267 0.252001,0.275335 0.629997,0.413 1.134,0.413 0.513336,0 0.895999,-0.137665 1.148,-0.413 0.252001,-0.275335 0.378,-0.697664 0.378,-1.267 v -3.556 c 0,-0.242668 0.07933,-0.445666 0.238,-0.609 0.158667,-0.163334 0.359332,-0.245 0.602,-0.245 z m 6.538,-0.14 c 0.644003,0 1.227331,0.165665 1.75,0.497 0.522669,0.331335 0.935665,0.790997 1.239,1.379 0.303335,0.588003 0.455,1.25533 0.455,2.002 0,0.74667 -0.149332,1.41633 -0.448,2.009 -0.298668,0.59267 -0.706997,1.054665 -1.225,1.386 -0.518003,0.331335 -1.089663,0.497 -1.715,0.497 -0.448002,0 -0.870331,-0.091 -1.267,-0.273 -0.396669,-0.182001 -0.725665,-0.403665 -0.987,-0.665 v 2.744 c 0,0.242668 -0.07933,0.445666 -0.238,0.609 -0.158667,0.163334 -0.359332,0.245 -0.602,0.245 -0.242668,0 -0.443333,-0.07933 -0.602,-0.238 -0.158668,-0.158668 -0.238,-0.363999 -0.238,-0.616 v -8.582 c 0,-0.242668 0.07933,-0.445666 0.238,-0.609 0.158667,-0.163334 0.359332,-0.245 0.602,-0.245 0.242668,0 0.443333,0.08167 0.602,0.245 0.158668,0.163334 0.238,0.366332 0.238,0.609 v 0.056 c 0.224001,-0.280001 0.536665,-0.524999 0.938,-0.735 0.401335,-0.210001 0.821331,-0.315 1.26,-0.315 z m -0.21,6.23 c 0.597336,0 1.087331,-0.223998 1.47,-0.672 0.382669,-0.448002 0.574,-1.007997 0.574,-1.68 0,-0.672003 -0.188998,-1.229665 -0.567,-1.673 -0.378002,-0.443336 -0.87033,-0.665 -1.477,-0.665 -0.60667,0 -1.101331,0.221664 -1.484,0.665 -0.382669,0.443335 -0.574,1.000997 -0.574,1.673 0,0.672003 0.191331,1.231998 0.574,1.68 0.382669,0.448002 0.87733,0.672 1.484,0.672 z m 8.932,-6.23 c 0.644003,0 1.227331,0.165665 1.75,0.497 0.522669,0.331335 0.935665,0.790997 1.239,1.379 0.303335,0.588003 0.455,1.25533 0.455,2.002 0,0.74667 -0.149332,1.41633 -0.448,2.009 -0.298668,0.59267 -0.706997,1.054665 -1.225,1.386 -0.518003,0.331335 -1.089664,0.497 -1.715,0.497 -0.448002,0 -0.870331,-0.091 -1.267,-0.273 -0.396669,-0.182001 -0.725665,-0.403665 -0.987,-0.665 v 2.744 c 0,0.242668 -0.07933,0.445666 -0.238,0.609 -0.158668,0.163334 -0.359332,0.245 -0.602,0.245 -0.242668,0 -0.443332,-0.07933 -0.602,-0.238 -0.158667,-0.158668 -0.238,-0.363999 -0.238,-0.616 v -8.582 c 0,-0.242668 0.07933,-0.445666 0.238,-0.609 0.158668,-0.163334 0.359332,-0.245 0.602,-0.245 0.242668,0 0.443332,0.08167 0.602,0.245 0.158667,0.163334 0.238,0.366332 0.238,0.609 v 0.056 c 0.224001,-0.280001 0.536665,-0.524999 0.938,-0.735 0.401335,-0.210001 0.821331,-0.315 1.26,-0.315 z m -0.21,6.23 c 0.597336,0 1.087331,-0.223998 1.47,-0.672 0.382669,-0.448002 0.574,-1.007997 0.574,-1.68 0,-0.672003 -0.188998,-1.229665 -0.567,-1.673 -0.378002,-0.443336 -0.87033,-0.665 -1.477,-0.665 -0.60667,0 -1.101331,0.221664 -1.484,0.665 -0.382669,0.443335 -0.574,1.000997 -0.574,1.673 0,0.672003 0.191331,1.231998 0.574,1.68 0.382669,0.448002 0.87733,0.672 1.484,0.672 z m 12.25,-2.338 c 0,0.74667 -0.168,1.41633 -0.504,2.009 -0.336,0.59267 -0.79566,1.052332 -1.379,1.379 -0.58334,0.326668 -1.225,0.49 -1.925,0.49 -0.709337,0 -1.35333,-0.163332 -1.932,-0.49 -0.57867,-0.326668 -1.035998,-0.78633 -1.372,-1.379 -0.336002,-0.59267 -0.504,-1.26233 -0.504,-2.009 0,-0.74667 0.167998,-1.41633 0.504,-2.009 0.336002,-0.59267 0.79333,-1.054665 1.372,-1.386 0.57867,-0.331335 1.222663,-0.497 1.932,-0.497 0.7,0 1.34166,0.165665 1.925,0.497 0.58334,0.331335 1.043,0.79333 1.379,1.386 0.336,0.59267 0.504,1.26233 0.504,2.009 z m -1.68,0 c 0,-0.457336 -0.0957,-0.865665 -0.287,-1.225 -0.19133,-0.359335 -0.448,-0.636999 -0.77,-0.833 -0.322,-0.196001 -0.679,-0.294 -1.071,-0.294 -0.392002,0 -0.748998,0.098 -1.071,0.294 -0.322002,0.196001 -0.578666,0.473665 -0.77,0.833 -0.191334,0.359335 -0.287,0.767664 -0.287,1.225 0,0.457336 0.09567,0.863332 0.287,1.218 0.191334,0.354668 0.447998,0.629999 0.77,0.826 0.322002,0.196001 0.678998,0.294 1.071,0.294 0.392,0 0.749,-0.098 1.071,-0.294 0.322,-0.196001 0.57867,-0.471332 0.77,-0.826 0.19133,-0.354668 0.287,-0.760664 0.287,-1.218 z m 6.972,-3.892 c 0.28,0 0.51567,0.07933 0.707,0.238 0.19133,0.158668 0.287,0.345332 0.287,0.56 0,0.289335 -0.0747,0.506333 -0.224,0.651 -0.14933,0.144667 -0.32667,0.217 -0.532,0.217 -0.14,0 -0.29867,-0.03267 -0.476,-0.098 -0.028,-0.0093 -0.091,-0.028 -0.189,-0.056 -0.098,-0.028 -0.203,-0.042 -0.315,-0.042 -0.24267,0 -0.476,0.07467 -0.7,0.224 -0.224,0.149334 -0.40833,0.375665 -0.553,0.679 -0.14467,0.303335 -0.217,0.664998 -0.217,1.085 v 3.318 c 0,0.242668 -0.0793,0.445666 -0.238,0.609 -0.15867,0.163334 -0.35933,0.245 -0.602,0.245 -0.24267,0 -0.44333,-0.08167 -0.602,-0.245 -0.15867,-0.163334 -0.238,-0.366332 -0.238,-0.609 v -5.782 c 0,-0.242668 0.0793,-0.445666 0.238,-0.609 0.15867,-0.163334 0.35933,-0.245 0.602,-0.245 0.24267,0 0.44333,0.08167 0.602,0.245 0.15867,0.163334 0.238,0.366332 0.238,0.609 v 0.182 c 0.21467,-0.382669 0.52267,-0.674332 0.924,-0.875 0.40134,-0.200668 0.83066,-0.301 1.288,-0.301 z m 5.796,6.048 c 0.13067,0 0.24967,0.063 0.357,0.189 0.10733,0.126001 0.161,0.291666 0.161,0.497 0,0.252001 -0.13766,0.464332 -0.413,0.637 -0.27533,0.172667 -0.58567,0.259 -0.931,0.259 -0.57867,0 -1.06633,-0.123665 -1.463,-0.371 -0.39667,-0.247335 -0.595,-0.772329 -0.595,-1.575 V 13.19 h -0.644 c -0.224,0 -0.41067,-0.07467 -0.56,-0.224 -0.14933,-0.149334 -0.224,-0.335999 -0.224,-0.56 0,-0.214668 0.0747,-0.394333 0.224,-0.539 0.14933,-0.144667 0.336,-0.217 0.56,-0.217 h 0.644 v -0.896 c 0,-0.242668 0.0817,-0.445666 0.245,-0.609 0.16333,-0.1633341 0.36633,-0.245 0.609,-0.245 0.23333,0 0.42933,0.081666 0.588,0.245 0.15867,0.163334 0.238,0.366332 0.238,0.609 v 0.896 h 0.994 c 0.224,0 0.41067,0.07467 0.56,0.224 0.14933,0.149334 0.224,0.335999 0.224,0.56 0,0.214668 -0.0747,0.394333 -0.224,0.539 -0.14933,0.144667 -0.336,0.217 -0.56,0.217 h -0.994 v 3.794 c 0,0.196001 0.0513,0.338333 0.154,0.427 0.10267,0.08867 0.24267,0.133 0.42,0.133 0.0747,0 0.17733,-0.01867 0.308,-0.056 0.112,-0.04667 0.21933,-0.07 0.322,-0.07 z m 14.672,-6.048 c 0.924,0 1.56333,0.282331 1.918,0.847 0.35467,0.56467 0.532,1.346328 0.532,2.345 v 3.584 c 0,0.242668 -0.0793,0.445666 -0.238,0.609 -0.15867,0.163334 -0.35933,0.245 -0.602,0.245 -0.24267,0 -0.44333,-0.08167 -0.602,-0.245 -0.15867,-0.163334 -0.238,-0.366332 -0.238,-0.609 v -3.584 c 0,-0.513336 -0.10033,-0.916999 -0.301,-1.211 -0.20067,-0.294001 -0.553,-0.441 -1.057,-0.441 -0.52267,0 -0.931,0.156332 -1.225,0.469 -0.294,0.312668 -0.441,0.706998 -0.441,1.183 v 3.584 c 0,0.242668 -0.0793,0.445666 -0.238,0.609 -0.15867,0.163334 -0.35933,0.245 -0.602,0.245 -0.24267,0 -0.44333,-0.08167 -0.602,-0.245 -0.15867,-0.163334 -0.238,-0.366332 -0.238,-0.609 v -3.584 c 0,-0.513336 -0.10033,-0.916999 -0.301,-1.211 -0.20067,-0.294001 -0.553,-0.441 -1.057,-0.441 -0.52267,0 -0.931,0.156332 -1.225,0.469 -0.294,0.312668 -0.441,0.706998 -0.441,1.183 v 3.584 c 0,0.242668 -0.0793,0.445666 -0.238,0.609 -0.15867,0.163334 -0.35933,0.245 -0.602,0.245 -0.24267,0 -0.44333,-0.08167 -0.602,-0.245 -0.15867,-0.163334 -0.238,-0.366332 -0.238,-0.609 v -5.782 c 0,-0.242668 0.0793,-0.445666 0.238,-0.609 0.15867,-0.163334 0.35933,-0.245 0.602,-0.245 0.24267,0 0.44333,0.08167 0.602,0.245 0.15867,0.163334 0.238,0.366332 0.238,0.609 v 0.224 c 0.252,-0.336002 0.57166,-0.622999 0.959,-0.861 0.38733,-0.238001 0.819,-0.357 1.295,-0.357 1.17601,0 1.92733,0.513328 2.254,1.54 0.21467,-0.392002 0.539,-0.746665 0.973,-1.064 0.434,-0.317335 0.92633,-0.476 1.477,-0.476 z m 10.99,3.71 c -0.009,0.224001 -0.098,0.405999 -0.266,0.546 -0.168,0.140001 -0.364,0.21 -0.588,0.21 h -4.62 c 0.112,0.550669 0.36866,0.982332 0.77,1.295 0.40133,0.312668 0.854,0.469 1.358,0.469 0.38267,0 0.68133,-0.035 0.896,-0.105 0.21467,-0.07 0.385,-0.144666 0.511,-0.224 0.126,-0.07933 0.21233,-0.133 0.259,-0.161 0.168,-0.084 0.32667,-0.126 0.476,-0.126 0.196,0 0.364,0.07 0.504,0.21 0.14,0.140001 0.21,0.303332 0.21,0.49 0,0.252001 -0.13067,0.480666 -0.392,0.686 -0.26134,0.214668 -0.61133,0.396666 -1.05,0.546 -0.43867,0.149334 -0.882,0.224 -1.33,0.224 -0.784,0 -1.46766,-0.163332 -2.051,-0.49 -0.58334,-0.326668 -1.03367,-0.776997 -1.351,-1.351 -0.31734,-0.574003 -0.476,-1.22033 -0.476,-1.939 0,-0.802671 0.168,-1.50733 0.504,-2.114 0.336,-0.60667 0.77933,-1.070998 1.33,-1.393 0.55067,-0.322002 1.13866,-0.483 1.764,-0.483 0.616,0 1.197,0.167998 1.743,0.504 0.546,0.336002 0.98233,0.788664 1.309,1.358 0.32667,0.569336 0.49,1.18533 0.49,1.848 z m -3.542,-2.17 c -1.08267,0 -1.722,0.508662 -1.918,1.526 h 3.668 v -0.098 c -0.0373,-0.392002 -0.22867,-0.727999 -0.574,-1.008 -0.34533,-0.280001 -0.73733,-0.42 -1.176,-0.42 z m 16.058,2.352 c 0,0.74667 -0.168,1.41633 -0.504,2.009 -0.336,0.59267 -0.79566,1.052332 -1.379,1.379 -0.58334,0.326668 -1.225,0.49 -1.925,0.49 -0.70934,0 -1.35333,-0.163332 -1.932,-0.49 -0.57867,-0.326668 -1.036,-0.78633 -1.372,-1.379 -0.336,-0.59267 -0.504,-1.26233 -0.504,-2.009 0,-0.74667 0.168,-1.41633 0.504,-2.009 0.336,-0.59267 0.79333,-1.054665 1.372,-1.386 0.57867,-0.331335 1.22266,-0.497 1.932,-0.497 0.7,0 1.34166,0.165665 1.925,0.497 0.58334,0.331335 1.043,0.79333 1.379,1.386 0.336,0.59267 0.504,1.26233 0.504,2.009 z m -1.68,0 c 0,-0.457336 -0.0957,-0.865665 -0.287,-1.225 -0.19133,-0.359335 -0.448,-0.636999 -0.77,-0.833 -0.322,-0.196001 -0.679,-0.294 -1.071,-0.294 -0.392,0 -0.749,0.098 -1.071,0.294 -0.322,0.196001 -0.57867,0.473665 -0.77,0.833 -0.19133,0.359335 -0.287,0.767664 -0.287,1.225 0,0.457336 0.0957,0.863332 0.287,1.218 0.19133,0.354668 0.448,0.629999 0.77,0.826 0.322,0.196001 0.679,0.294 1.071,0.294 0.392,0 0.749,-0.098 1.071,-0.294 0.322,-0.196001 0.57867,-0.471332 0.77,-0.826 0.19133,-0.354668 0.287,-0.760664 0.287,-1.218 z m 7.084,-3.892 c 0.952,0 1.61,0.282331 1.974,0.847 0.364,0.56467 0.546,1.346328 0.546,2.345 v 3.584 c 0,0.242668 -0.0793,0.445666 -0.238,0.609 -0.15867,0.163334 -0.35933,0.245 -0.602,0.245 -0.24267,0 -0.44333,-0.08167 -0.602,-0.245 -0.15867,-0.163334 -0.238,-0.366332 -0.238,-0.609 v -3.584 c 0,-0.513336 -0.10733,-0.916999 -0.322,-1.211 -0.21467,-0.294001 -0.58333,-0.441 -1.106,-0.441 -0.54134,0 -0.966,0.156332 -1.274,0.469 -0.308,0.312668 -0.462,0.706998 -0.462,1.183 v 3.584 c 0,0.242668 -0.0793,0.445666 -0.238,0.609 -0.15867,0.163334 -0.35933,0.245 -0.602,0.245 -0.24267,0 -0.44333,-0.08167 -0.602,-0.245 -0.15867,-0.163334 -0.238,-0.366332 -0.238,-0.609 v -5.782 c 0,-0.242668 0.0793,-0.445666 0.238,-0.609 0.15867,-0.163334 0.35933,-0.245 0.602,-0.245 0.24267,0 0.44333,0.08167 0.602,0.245 0.15867,0.163334 0.238,0.366332 0.238,0.609 v 0.238 c 0.252,-0.336002 0.581,-0.625332 0.987,-0.868 0.406,-0.242668 0.85166,-0.364 1.337,-0.364 z m 15.904,6.174 c 0.056,0.07467 0.10267,0.165666 0.14,0.273 0.0373,0.107334 0.056,0.207666 0.056,0.301 0,0.252001 -0.0957,0.461999 -0.287,0.63 -0.19133,0.168001 -0.413,0.252 -0.665,0.252 -0.12133,0 -0.238,-0.028 -0.35,-0.084 -0.112,-0.056 -0.20533,-0.135333 -0.28,-0.238 l -3.038,-4.004 -1.33,1.274 v 2.198 c 0,0.252001 -0.0817,0.457332 -0.245,0.616 -0.16333,0.158667 -0.37567,0.238 -0.637,0.238 -0.252,0 -0.45967,-0.08167 -0.623,-0.245 -0.16333,-0.163334 -0.245,-0.366332 -0.245,-0.609 v -8.092 c 0,-0.2426679 0.084,-0.4456659 0.252,-0.609 0.168,-0.1633341 0.38266,-0.245 0.644,-0.245 0.252,0 0.45733,0.079333 0.616,0.238 0.15867,0.1586675 0.238,0.3639987 0.238,0.616 v 3.808 l 4.48,-4.41 c 0.21467,-0.2146677 0.44333,-0.322 0.686,-0.322 0.21467,0 0.39667,0.088666 0.546,0.266 0.14933,0.1773342 0.224,0.363999 0.224,0.56 0,0.196001 -0.084,0.377999 -0.252,0.546 l -3.052,2.912 z m 8.722,-2.282 c 0,0.74667 -0.168,1.41633 -0.504,2.009 -0.336,0.59267 -0.79566,1.052332 -1.379,1.379 -0.58334,0.326668 -1.225,0.49 -1.925,0.49 -0.70934,0 -1.35333,-0.163332 -1.932,-0.49 -0.57867,-0.326668 -1.036,-0.78633 -1.372,-1.379 -0.336,-0.59267 -0.504,-1.26233 -0.504,-2.009 0,-0.74667 0.168,-1.41633 0.504,-2.009 0.336,-0.59267 0.79333,-1.054665 1.372,-1.386 0.57867,-0.331335 1.22266,-0.497 1.932,-0.497 0.7,0 1.34166,0.165665 1.925,0.497 0.58334,0.331335 1.043,0.79333 1.379,1.386 0.336,0.59267 0.504,1.26233 0.504,2.009 z m -1.68,0 c 0,-0.457336 -0.0957,-0.865665 -0.287,-1.225 -0.19133,-0.359335 -0.448,-0.636999 -0.77,-0.833 -0.322,-0.196001 -0.679,-0.294 -1.071,-0.294 -0.392,0 -0.749,0.098 -1.071,0.294 -0.322,0.196001 -0.57867,0.473665 -0.77,0.833 -0.19133,0.359335 -0.287,0.767664 -0.287,1.225 0,0.457336 0.0957,0.863332 0.287,1.218 0.19133,0.354668 0.448,0.629999 0.77,0.826 0.322,0.196001 0.679,0.294 1.071,0.294 0.392,0 0.749,-0.098 1.071,-0.294 0.322,-0.196001 0.57867,-0.471332 0.77,-0.826 0.19133,-0.354668 0.287,-0.760664 0.287,-1.218 z m 3.724,0.28 c -0.24267,0 -0.44567,-0.07933 -0.609,-0.238 -0.16333,-0.158667 -0.245,-0.359332 -0.245,-0.602 0,-0.233334 0.0817,-0.429332 0.245,-0.588 0.16333,-0.158667 0.36633,-0.238 0.609,-0.238 h 2.436 c 0.24267,0 0.44567,0.08167 0.609,0.245 0.16333,0.163334 0.245,0.366332 0.245,0.609 0,0.233335 -0.0817,0.426999 -0.245,0.581 -0.16333,0.154001 -0.36633,0.231 -0.609,0.231 z m 8.498,-5.418 c -0.31733,0 -0.54133,0.091 -0.672,0.273 -0.13067,0.182001 -0.196,0.380332 -0.196,0.595 v 0.658 h 1.274 c 0.224,0 0.41067,0.07233 0.56,0.217 0.14933,0.144667 0.224,0.328999 0.224,0.553 0,0.224001 -0.0747,0.408333 -0.224,0.553 -0.14933,0.144667 -0.336,0.217 -0.56,0.217 h -1.274 v 4.956 c 0,0.242668 -0.0793,0.445666 -0.238,0.609 -0.15867,0.163334 -0.35933,0.245 -0.602,0.245 -0.24267,0 -0.44333,-0.08167 -0.602,-0.245 -0.15867,-0.163334 -0.238,-0.366332 -0.238,-0.609 V 13.19 h -0.756 c -0.224,0 -0.41067,-0.07233 -0.56,-0.217 -0.14933,-0.144667 -0.224,-0.328999 -0.224,-0.553 0,-0.224001 0.0747,-0.408333 0.224,-0.553 0.14933,-0.144667 0.336,-0.217 0.56,-0.217 h 0.756 v -0.644 c 0,-0.700004 0.24033,-1.2693311 0.721,-1.708 0.48067,-0.4386689 1.17366,-0.658 2.079,-0.658 0.34534,0 0.64633,0.069999 0.903,0.21 0.25667,0.1400007 0.385,0.3546652 0.385,0.644 0,0.2240011 -0.0653,0.4059993 -0.196,0.546 -0.13067,0.140001 -0.28933,0.21 -0.476,0.21 -0.0467,0 -0.0957,-0.0047 -0.147,-0.014 -0.0513,-0.0093 -0.105,-0.01867 -0.161,-0.028 -0.224,-0.056 -0.41067,-0.084 -0.56,-0.084 z m 3.822,8.022 c 0,0.242668 -0.0793,0.445666 -0.238,0.609 -0.15867,0.163334 -0.35933,0.245 -0.602,0.245 -0.24267,0 -0.44333,-0.08167 -0.602,-0.245 -0.15867,-0.163334 -0.238,-0.366332 -0.238,-0.609 v -5.782 c 0,-0.242668 0.0793,-0.445666 0.238,-0.609 0.15867,-0.163334 0.35933,-0.245 0.602,-0.245 0.24267,0 0.44333,0.08167 0.602,0.245 0.15867,0.163334 0.238,0.366332 0.238,0.609 z M 196.932,10.6 c -0.31734,0 -0.54133,-0.05133 -0.672,-0.154 -0.13067,-0.102667 -0.196,-0.284665 -0.196,-0.546 V 9.634 c 0,-0.2613346 0.07,-0.4433328 0.21,-0.546 0.14,-0.1026672 0.364,-0.154 0.672,-0.154 0.32667,0 0.55533,0.051333 0.686,0.154 0.13067,0.1026672 0.196,0.2846654 0.196,0.546 V 9.9 c 0,0.270668 -0.0677,0.455 -0.203,0.553 -0.13533,0.098 -0.36633,0.147 -0.693,0.147 z"
                id="SupportmeonKo-f"
                fill="#ffffff"
                fill-rule="nonzero"
                style="stroke:none;stroke-width:1"/>
    </g>
    <metadata
            id="metadata325">
        <rdf:RDF>
            <cc:Work
                    rdf:about="">
                <dc:title>Artboard</dc:title>
            </cc:Work>
        </rdf:RDF>
    </metadata>
</svg>
